<?xml version="1.0" encoding="UTF-8" standalone="no"?>
<!-- Created with Inkscape (http://www.inkscape.org/) -->

<svg
   width="84.616051mm"
   height="135.3727mm"
   viewBox="0 0 84.616052 135.3727"
   version="1.1"
   id="svg1"
   xml:space="preserve"
   xmlns="http://www.w3.org/2000/svg"
   xmlns:svg="http://www.w3.org/2000/svg"><defs
     id="defs1"><linearGradient
       id="linearGradient12"><stop
         style="stop-color:#000000;stop-opacity:1;"
         offset="0"
         id="stop12" /><stop
         style="stop-color:#000000;stop-opacity:0;"
         offset="1"
         id="stop13" /></linearGradient></defs><g
     id="layer1"
     transform="translate(-61.457445,-75.273431)"><g
       id="g6"><path
         id="path3"
         style="fill:#d4ff2a"
         d="m 89.008469,79.730039 c -2.009664,0.05258 -3.987173,1.197418 -4.51652,3.22616 -0.149585,0.573294 -0.770148,13.127158 -1.378727,27.897521 -0.608578,14.77037 -1.215409,27.30112 -1.348755,27.84585 -0.169199,0.69119 -0.475389,1.11086 -1.013375,1.38906 -1.143319,0.59124 -1.804275,0.49067 -2.707328,-0.41238 l -0.81132,-0.81132 0.164331,-2.95899 c 0.09028,-1.62752 0.243831,-5.0201 0.341581,-7.53856 l 0.177767,-4.57853 -0.766879,0.17983 c -2.895234,0.67896 -6.962044,3.79533 -8.400004,6.43734 -1.489377,2.73647 -1.746974,4.00268 -2.295467,11.27114 -0.623977,8.26875 -0.646173,10.39538 -0.128674,12.38219 0.898093,3.44801 1.619188,4.42126 9.329146,12.58631 2.953623,3.12797 3.505729,3.84257 3.505729,4.5372 0,0.45347 -0.12429,1.05718 -0.276468,1.34152 -0.235348,0.43976 -0.0278,0.79473 1.389062,2.37453 0.916163,1.02152 2.124785,2.53727 2.685624,3.36827 l 1.019576,1.5105 -0.754992,0.16743 c -0.415318,0.0919 6.992695,0.18124 16.462561,0.19844 l 17.218073,0.031 0.53588,0.59532 c 0.29473,0.32743 0.60928,0.80367 0.69918,1.05833 0.14415,0.40842 0.56399,0.46302 3.55948,0.46302 h 3.39565 l 0.84078,-2.05052 c 1.24672,-3.03948 2.46352,-4.71557 7.3365,-10.10894 5.80462,-6.42449 6.80606,-7.93158 7.80676,-11.74864 0.67472,-2.57367 0.65106,-3.94439 -0.28525,-16.57315 -0.95831,-12.92543 -0.92476,-12.79323 -3.56516,-14.1428 -1.13931,-0.58234 -1.6891,-1.04861 -1.97559,-1.67691 -0.34803,-0.7633 -0.4924,-0.8526 -1.17254,-0.7245 -0.42658,0.0803 -1.29757,0.45228 -1.9358,0.82631 l -1.16013,0.68006 0.21601,3.08715 c 0.34337,4.90269 0.30485,5.46365 -0.42685,6.24251 -1.34156,1.42803 -3.58549,0.57913 -3.86798,-1.46347 -0.0683,-0.4938 -0.36428,-4.45077 -0.65784,-8.79327 -0.59249,-8.7648 -0.69524,-9.19783 -2.5554,-10.73112 -0.54611,-0.45016 -1.41284,-0.88364 -1.92598,-0.96274 -1.98937,-0.30682 -2.82832,-0.65204 -3.18017,-1.30948 -0.42426,-0.79275 -0.91862,-0.83409 -1.98644,-0.16639 -1.63291,1.02103 -2.03508,1.59127 -1.86087,2.63808 0.0883,0.53051 0.32376,4.10333 0.52348,7.93956 0.40837,7.84409 0.34919,8.33481 -1.07952,8.93176 -1.18212,0.49392 -2.51984,-0.0176 -2.93936,-1.12396 -0.15854,-0.41809 -0.4326,-3.84992 -0.60874,-7.62641 -0.17615,-3.77649 -0.42108,-7.21872 -0.54467,-7.64966 -0.62806,-2.18991 -2.54613,-3.71998 -5.19038,-4.14084 -1.23202,-0.19608 -1.66748,-0.40682 -2.24173,-1.08417 -0.68562,-0.8087 -0.74525,-0.82708 -1.57303,-0.48421 -0.47324,0.19603 -1.253937,0.70179 -1.734777,1.12397 l -0.874365,0.76739 v 9.21598 c 0,5.46419 -0.106636,9.49741 -0.262516,9.9074 -0.33088,0.87027 -1.838862,1.55342 -2.701128,1.2237 -0.334383,-0.12787 -0.846356,-0.49664 -1.137398,-0.81959 -0.518954,-0.57584 -0.53172,-1.05527 -0.661458,-24.83517 C 93.5863,83.608899 93.555533,82.375297 93.089357,81.688059 92.1538,80.30886 90.571541,79.689147 89.008469,79.730039 Z M 140.503,169.06412 c -0.0821,-0.0191 -0.29071,0.17367 -0.64596,0.59325 l -0.50436,0.59531 0.59532,-0.50385 c 0.32742,-0.27722 0.59531,-0.54511 0.59531,-0.59531 0,-0.0529 -0.0129,-0.083 -0.0403,-0.0894 z m -2.91042,3.175 c -0.0821,-0.0191 -0.29071,0.17367 -0.64595,0.59325 l -0.50436,0.59531 0.59531,-0.50385 c 0.32742,-0.27722 0.59531,-0.54511 0.59531,-0.59531 0,-0.0529 -0.0129,-0.083 -0.0403,-0.0894 z m -2.64583,2.91042 c -0.0821,-0.0191 -0.29071,0.17366 -0.64596,0.59324 l -0.50436,0.59532 0.59532,-0.50385 c 0.32742,-0.27722 0.59531,-0.54511 0.59531,-0.59531 0,-0.0529 -0.013,-0.083 -0.0403,-0.0894 z m -0.85318,33.07085 c -0.0549,0 -0.2633,0.20836 -0.46302,0.46302 -0.3291,0.41965 -0.31991,0.42936 0.0997,0.10025 0.44072,-0.34564 0.58105,-0.56327 0.36328,-0.56327 z" /><path
         id="path2"
         style="fill:#66ff00"
         d="m 125.43209,181.79048 c -0.0184,-0.01 -0.0731,0.0527 -0.16847,0.18551 -0.18834,0.26258 -1.09056,0.32629 -3.72949,0.26459 -3.10665,-0.0727 -3.48133,-0.0337 -3.48092,0.36018 8.4e-4,0.79548 -0.31596,1.2914 -1.07642,1.68465 -0.63394,0.32779 -3.32456,0.38706 -17.57464,0.38706 H 82.575787 l -0.649573,0.64957 -0.649573,0.64958 0.0088,9.33844 c 0.0089,9.82483 0.01011,9.83597 1.230933,10.48619 0.426755,0.2273 6.657168,0.30747 23.819726,0.30747 25.26995,0 24.07687,0.0689 24.68997,-1.41697 0.12864,-0.31185 0.20932,-4.65581 0.17932,-9.65264 l -0.0548,-9.08471 -0.74207,-0.63872 c -0.5402,-0.46447 -1.05805,-0.63821 -1.90118,-0.63821 -0.63726,0 -1.46914,-0.11811 -1.84898,-0.26252 -0.73625,-0.27992 -1.49059,-1.68187 -1.27486,-2.36936 0.0494,-0.1576 0.067,-0.24014 0.0486,-0.25011 z m 10.18129,7.68687 c -0.009,0.0756 -0.0197,0.42166 -0.0305,1.06505 -0.0433,2.57354 -0.0432,6.85979 0,9.525 0.0432,2.66521 0.0785,0.55945 0.0786,-4.6793 7e-5,-3.92907 -0.0199,-6.1376 -0.0481,-5.91075 z m -59.002087,0.26458 c -0.0094,0.0932 -0.01965,0.45106 -0.03049,1.09916 -0.04336,2.59238 -0.04345,6.75957 0,9.26041 0.04345,2.50085 0.07916,0.37983 0.07906,-4.7134 -6.8e-5,-3.81993 -0.02029,-5.92561 -0.04858,-5.64617 z m 16.286344,3.39721 c 2.712081,0 3.212081,0.0693 3.789433,0.52348 0.36583,0.28776 0.720782,0.81361 0.788582,1.1684 0.16078,0.8411 -0.403128,2.15934 -1.078487,2.52078 -0.293318,0.15698 -1.903651,0.28525 -3.578593,0.28525 -2.82252,0 -3.099184,-0.0455 -3.774963,-0.62683 -0.555252,-0.47761 -0.728638,-0.86469 -0.728638,-1.62212 0,-0.75743 0.173386,-1.144 0.728638,-1.62161 0.678094,-0.58327 0.948165,-0.62735 3.854028,-0.62735 z" /><path
         style="fill:#030303"
         d="m 145.68335,158.6818 c -0.51731,2.36132 -1.77863,5.37074 -3.11134,7.42343 -0.63076,0.97152 -3.19253,4.01842 -5.69282,6.77088 -2.50029,2.75246 -4.89176,5.56643 -5.31437,6.25326 l -0.76838,1.24879 1.04637,0.47185 c 0.5755,0.25951 1.45619,0.92547 1.95709,1.4799 1.72156,1.90557 1.7165,1.86708 1.7165,13.03875 v 10.1022 l -0.68534,1.37528 c -0.83959,1.68485 -2.20023,2.85134 -3.92675,3.36643 -1.8938,0.565 -47.573537,0.58397 -49.445695,0.0205 -1.70195,-0.51222 -3.192183,-1.77716 -3.997462,-3.39315 l -0.682253,-1.3691 v -10.08706 -10.08707 l 0.727604,-1.43469 c 0.810826,-1.59878 2.418812,-2.97832 3.975433,-3.41063 0.63197,-0.17551 7.13558,-0.27423 18.129304,-0.27517 l 17.143789,-0.001 0.64944,0.64943 c 0.6391,0.6391 0.83827,1.72558 0.48507,2.64601 -0.45552,1.18709 -0.69218,1.20248 -18.487649,1.20248 H 82.57568 l -0.649431,0.64943 -0.649432,0.64943 0.0084,9.33859 c 0.0089,9.82483 0.01014,9.83578 1.230962,10.486 0.426779,0.2273 6.667787,0.3078 23.863891,0.3078 h 23.28597 l 0.74236,-0.63855 0.74236,-0.63855 v -9.43853 -9.43852 l -0.74236,-0.63855 c -0.54034,-0.46479 -1.05765,-0.63855 -1.901,-0.63855 -1.64476,0 -2.48565,-0.39619 -2.89198,-1.36258 -0.43931,-1.04482 -0.20364,-1.99037 1.18425,-4.75133 1.17652,-2.34046 2.4134,-3.907 7.65838,-9.69948 4.17575,-4.61164 5.24712,-6.16398 6.25565,-9.064 1.12707,-3.2409 1.14219,-4.58626 0.19294,-17.17458 -0.47804,-6.33938 -0.94182,-11.81655 -1.03063,-12.17147 -0.29399,-1.1749 -1.23039,-2.16387 -2.72923,-2.88243 -1.66794,-0.79964 -2.33325,-1.69733 -2.06122,-2.78117 0.60182,-2.39786 3.51004,-2.28832 6.46803,0.24361 1.17568,1.00634 2.55698,3.50418 2.80186,5.06665 0.32542,2.07638 1.74312,22.38478 1.7177,24.60592 -0.0146,1.27705 -0.19003,3.06804 -0.38981,3.97998 z M 131.3322,134.99134 c -0.22185,1.92558 -3.12182,2.40774 -4.05002,0.67337 -0.17483,-0.32665 -0.56768,-4.3414 -0.90528,-9.25146 -0.57485,-8.3606 -0.62157,-8.71729 -1.29174,-9.86086 -0.83452,-1.42399 -2.40523,-2.40877 -4.25314,-2.66656 -1.70824,-0.23831 -2.51354,-0.95537 -2.51354,-2.23815 0,-1.49879 0.95168,-2.24584 2.76439,-2.16998 3.8559,0.16135 7.47941,2.94076 8.76066,6.71986 0.41376,1.22041 1.67657,17.16285 1.48867,18.79378 z m -16.50457,-3.30147 c -0.8974,0.82917 -2.31,0.80003 -3.12209,-0.0644 -0.57665,-0.61382 -0.63386,-0.95887 -0.82244,-4.96093 -0.47665,-10.11535 -0.51158,-10.44591 -1.25976,-11.9197 -0.90446,-1.78164 -2.29302,-2.74585 -4.51679,-3.13646 -2.21782,-0.38956 -3.06047,-1.15045 -2.83487,-2.55982 0.24792,-1.5488 1.00633,-1.98258 3.21451,-1.83854 3.56505,0.23255 6.78188,2.49226 8.36556,5.87651 0.89975,1.92272 1.12208,3.92101 1.44157,12.95693 l 0.1786,5.0511 z m -16.539759,-0.99219 c -0.58877,1.61063 -2.499542,2.10015 -3.661623,0.93807 l -0.649432,-0.64943 -0.01161,-23.62609 c -0.01229,-24.996179 -0.0044,-24.827443 -1.220001,-26.194514 -1.716307,-1.930211 -5.184527,-1.991766 -7.163922,-0.127147 -1.456425,1.371973 -1.282295,-0.555387 -2.454661,27.169531 -1.372707,32.46272 -1.259,30.48291 -1.791713,31.19642 -0.269942,0.36156 -0.79219,0.73798 -1.16055,0.8365 -0.910557,0.24352 -2.285477,-0.37722 -2.585934,-1.16748 -0.215135,-0.56585 -0.10712,-4.86302 0.335879,-13.36225 l 0.101309,-1.94368 -0.805222,0.16104 c -1.291667,0.25834 -3.621158,1.41731 -5.113682,2.54418 -2.580626,1.94839 -4.854612,5.91909 -5.248823,9.16519 -0.08532,0.70255 -0.376833,4.43252 -0.647809,8.28883 -0.528291,7.51821 -0.458665,9.11178 0.511392,11.70448 0.865297,2.31272 1.88191,3.61224 7.315691,9.35153 4.522948,4.77724 5.122993,5.51313 5.122993,6.28282 0,1.4464 -1.524117,2.6022 -2.868692,2.17545 -0.571694,-0.18145 -8.977525,-8.86031 -10.963409,-11.31951 -1.490284,-1.84548 -2.890266,-4.72702 -3.505166,-7.21457 -0.383904,-1.55306 -0.431915,-2.59961 -0.297376,-6.48229 0.198652,-5.73291 0.839855,-13.5342 1.253448,-15.25027 0.448166,-1.85951 2.105688,-5.28979 3.370214,-6.97473 2.319883,-3.09116 6.428072,-5.78204 10.26188,-6.72156 l 1.851896,-0.45383 0.60358,-14.86699 c 0.872887,-21.500377 0.895434,-21.807548 1.735885,-23.649139 0.914459,-2.003757 2.470322,-3.564127 4.479795,-4.492772 1.402294,-0.648047 1.936756,-0.747173 3.99982,-0.741839 2.00319,0.0052 2.617327,0.115873 3.868211,0.69722 2.953076,1.372441 4.731592,3.694568 5.242772,6.845227 0.28755,1.77239 0.37738,47.108763 0.0949,47.881603 z m -1.02319,65.57349 c -0.18391,0.43739 -0.57437,0.9237 -0.867689,1.08067 -0.293318,0.15698 -1.903711,0.28542 -3.578653,0.28542 -2.82252,0 -3.098698,-0.0459 -3.774477,-0.62717 -0.555252,-0.47761 -0.729129,-0.86436 -0.729129,-1.62179 0,-0.75743 0.173877,-1.14418 0.729129,-1.62179 0.678094,-0.58327 0.947831,-0.62717 3.853694,-0.62717 2.712081,0 3.212373,0.0691 3.789725,0.52322 0.81647,0.64224 1.01916,1.55796 0.5774,2.60861 z"
         id="path1" /></g></g></svg>
