<?xml version="1.0" encoding="UTF-8" standalone="no"?>
<!-- Created with Inkscape (http://www.inkscape.org/) -->

<svg
   width="113.16901mm"
   height="135.36977mm"
   viewBox="0 0 113.16902 135.36977"
   version="1.1"
   id="svg1"
   xml:space="preserve"
   xmlns="http://www.w3.org/2000/svg"
   xmlns:svg="http://www.w3.org/2000/svg"><defs
     id="defs1" /><g
     id="g12"
     transform="translate(-102.87212,0.45344877)"><path
       style="fill:#66ff00;fill-opacity:1;stroke-width:0.391549"
       d="m 135.10339,99.751258 -12.57327,4.260372 -5.45633,9.11244 -1.30477,21.06514 h 87.30123 l -0.94893,-22.24858 -7.82864,-8.63907 -14.82698,-5.562142 -6.64248,0.355032 z"
       id="path12" /><path
       style="fill:#d4ff2a;fill-opacity:1;stroke-width:0.391999"
       d="m 126.81754,103.33281 0.83874,30.86565 h 63.43377 l 0.23723,-31.59579 -12.45465,-4.151557 -0.83032,12.454657 -2.96539,9.7265 -9.60788,2.96539 -16.01313,-0.59308 -6.64249,-3.32124 c 0,0 -2.01647,-4.27017 -2.01647,-4.74463 0,-0.47446 -0.23723,-10.55681 -0.23723,-10.55681 l -0.35584,-6.286633 z"
       id="path11" /><path
       style="fill:#ffebd2;fill-opacity:1;stroke-width:0.391999"
       d="m 169.62059,86.470918 c 0,0 -0.35584,6.761101 6.40526,9.489265 6.7611,2.728161 2.49093,4.507397 2.49093,4.507397 l -0.94893,4.38879 c 0,0 -10.5568,6.7611 -17.08067,4.5074 -6.52387,-2.2537 -3.67709,0.83031 -3.67709,0.83031 l -9.84512,-3.43986 -6.76109,-5.45633 0.83031,-3.558472 c 0,0 4.62601,-3.084009 5.10047,-3.439858 0.47447,-0.355846 3.08401,-9.014801 3.08401,-9.014801 z"
       id="path10" /><path
       id="path8"
       style="fill:#d4ff2a;fill-opacity:1;stroke-width:0.391999"
       d="m 116.79325,70.609644 1.62677,1.626774 c 1.97728,1.977275 4.31825,3.150797 7.07967,3.54862 l 1.94562,0.280087 0.28319,1.125512 c 0.30546,1.213097 0.37998,4.575662 0.12919,5.829619 -0.1393,0.696513 -0.24042,0.760882 -1.04335,0.667142 -0.95407,-0.111383 -1.35053,0.190388 -2.87063,2.18333 -0.43815,0.574441 -1.33598,1.26534 -2.11666,1.628841 -2.64186,1.230113 -6.65663,0.689573 -9.79217,-1.318266 -1.96435,-1.257869 -3.99895,-3.596244 -4.53616,-5.213635 -0.53363,-1.606629 -0.43274,-3.627974 0.2527,-5.062224 1.29495,-2.709627 4.44289,-4.878843 7.47965,-5.154207 z" /><path
       style="fill:#ffebd2;fill-opacity:1;stroke-width:0.391999"
       d="m 131.34674,39.756294 1.67748,26.83969 7.54867,12.581107 7.38091,4.864692 3.85821,3.019468 3.35496,1.006488 8.55515,0.335494 6.20668,-3.690456 9.56164,-6.709923 5.53568,-7.548663 2.34848,-8.387405 0.50324,-23.149235 z"
       id="path7" /><path
       style="fill:#66ff00;fill-opacity:1;stroke-width:0.391999"
       d="m 126.48205,20.800761 -1.84523,12.748852 69.7832,0.167749 -2.51623,-16.774807 -60.22155,-3.690457 z"
       id="path6" /><path
       id="path5"
       style="fill:#d4ff2a;fill-opacity:1"
       d="m 159.84657,4.0452311 c -10.01272,-0.031117 -19.90988,1.8685192 -25.39845,5.3795166 -3.07578,1.9675493 -4.43025,3.9904963 -4.73769,7.0755373 l -0.17777,1.785937 h 25.03723 c 21.4566,0 25.14453,0.05533 25.78603,0.387057 0.76042,0.393228 1.07762,0.889585 1.07693,1.685168 -3.4e-4,0.396548 0.41618,0.433302 4.10104,0.362252 3.08615,-0.05951 4.10156,3.58e-4 4.10156,0.242363 0,0.176886 0.043,0.271986 0.0956,0.211356 0.24203,-0.278808 -0.85674,-7.086216 -1.27382,-7.892025 -1.31061,-2.532132 -6.18005,-5.5363161 -11.38949,-7.0269609 -5.16411,-1.4776764 -11.21353,-2.1915308 -17.22117,-2.210201 z m -45.07373,31.0420329 -0.5979,0.59738 c -0.4892,0.489208 -0.61551,0.955649 -0.69711,2.571419 -0.0961,1.903601 -0.0711,2.002711 0.70228,2.776058 l 0.80202,0.802018 h 8.76329 8.7638 l 0.64958,0.649056 c 0.35719,0.357188 0.64957,0.830965 0.64957,1.052649 0,0.344139 0.72526,0.413446 4.96094,0.474906 l 4.96093,0.07235 0.19689,-0.694531 c 0.42692,-1.501809 -1.35442,-1.411273 30.66015,-1.554427 l 29.58527,-0.132292 0.60255,-0.603064 c 0.5259,-0.52599 0.60306,-0.869677 0.60306,-2.704227 0,-1.834635 -0.077,-2.178731 -0.60306,-2.704745 l -0.60255,-0.602547 h -44.6996 z m 11.89178,11.244792 0.001,2.447395 c 0.002,3.031039 0.30232,4.154525 1.42937,5.349545 h 5.2e-4 c 0.48449,0.513718 0.956,0.93431 1.048,0.93431 0.092,0 0.16691,-1.964532 0.16691,-4.365625 v -4.365625 h -1.32291 z m 62.97083,0 v 4.374926 c 0,4.264909 0.0127,4.36778 0.51883,4.096908 0.28555,-0.152823 0.88609,-0.811012 1.33429,-1.462443 0.80186,-1.165459 1.66853,-1.632425 2.58279,-1.392163 0.41813,0.109883 0.4515,-0.133882 0.3762,-2.74867 l -0.0827,-2.868558 h -2.36471 z m -66.60213,8.485787 -1.20561,0.764811 c -1.33099,0.844086 -3.27591,3.132551 -3.53312,4.157369 -0.0907,0.361397 -0.41733,0.758973 -0.72606,0.883667 -0.18738,0.07568 -0.22026,0.104485 -0.26871,0.139009 l 0.0279,0.07028 c 0.0708,0.01474 0.12879,0.0284 0.3607,0.03411 1.19858,0.0295 1.87908,1.07493 2.01073,3.0887 0.23338,3.569722 1.96126,5.902137 5.20124,7.021794 0.75199,0.259867 1.6885,0.476307 2.08152,0.481107 1.19595,0.01446 3.34842,-0.537164 3.92276,-1.005106 l 0.54209,-0.441317 -0.55242,-1.5875 c -0.6746,-1.938902 -1.21325,-4.446749 -1.45573,-6.775814 l -0.1819,-1.748214 -1.36891,-0.567407 c -1.72146,-0.713507 -3.06434,-1.812477 -4.07055,-3.331579 z m 71.81525,2.246374 c -0.38045,0.03533 -0.75306,0.294759 -1.26659,0.734322 -0.59148,0.506287 -1.69463,1.194033 -2.45153,1.528072 l -1.37614,0.607198 -0.43667,3.054594 c -0.24016,1.68013 -0.74698,3.993594 -1.12654,5.140772 -0.37955,1.147177 -0.62929,2.14681 -0.55449,2.22157 0.0748,0.07476 0.76329,0.352636 1.53014,0.617533 1.69818,0.586619 2.89817,0.618498 4.55321,0.120406 1.80443,-0.543053 3.1458,-1.51992 4.37803,-3.187919 0.89952,-1.217639 1.2445,-1.483609 2.10426,-1.62109 0.74858,-0.119703 1.06991,-0.318324 1.18029,-0.729671 0.24088,-0.897682 0.18363,-2.7469 -0.12299,-3.964616 -0.27003,-1.072373 -0.32022,-1.115915 -1.17202,-1.016475 -0.79985,0.09338 -1.06091,-0.06941 -2.57762,-1.608688 -1.37083,-1.391223 -2.02725,-1.954897 -2.66134,-1.896008 z m 7.06365,13.545427 -1.62677,1.626774 c -1.97728,1.977275 -4.31825,3.150797 -7.07967,3.54862 l -1.94562,0.280087 -0.28319,1.125512 c -0.30546,1.213097 -0.37998,4.575662 -0.12919,5.829619 0.1393,0.696513 0.24042,0.760882 1.04335,0.667142 0.95407,-0.111383 1.35053,0.190388 2.87063,2.18333 0.43815,0.574441 1.33598,1.26534 2.11666,1.628841 2.64186,1.230113 6.65663,0.689573 9.79217,-1.318266 1.96435,-1.257869 3.99895,-3.596244 4.53616,-5.213635 0.53363,-1.606629 0.43274,-3.627974 -0.2527,-5.062224 -1.29495,-2.709627 -4.44289,-4.878843 -7.47965,-5.154207 z m -50.87441,14.974796 -0.33796,1.871204 c -0.18594,1.029112 -0.34175,1.982462 -0.34675,2.118733 -0.0103,0.294975 1.13127,0.616278 3.82819,1.077971 3.91849,0.670815 8.98559,0.457786 13.27567,-0.558106 1.95379,-0.462656 2.54459,-0.94069 2.85306,-2.308386 l 0.20722,-0.917773 -1.79214,0.609265 c -2.04198,0.69452 -6.14155,1.452624 -7.85585,1.452624 -1.25824,0 -2.45221,-0.862395 -2.45721,-1.774052 -0.002,-0.402773 -0.27376,-0.485963 -1.78594,-0.545703 -0.98094,-0.03875 -2.63983,-0.285012 -3.68608,-0.54777 z" /><path
       style="fill:#030202"
       d="m 115.10429,134.70586 c -0.31894,-0.13161 -0.77479,-0.53674 -1.01301,-0.9003 -0.38543,-0.58825 -0.42217,-1.68936 -0.33369,-10.00225 0.0991,-9.31113 0.10172,-9.34813 0.81174,-11.47865 1.43931,-4.3189 4.38105,-7.83922 8.46995,-10.13581 0.55136,-0.30968 4.30123,-1.70158 8.33305,-3.093122 4.03183,-1.391537 7.96803,-2.908687 8.74712,-3.371443 1.74002,-1.033515 4.06293,-3.489073 4.94239,-5.224614 0.36097,-0.712341 0.8242,-2.014814 1.02939,-2.894382 l 0.37307,-1.599217 -1.23486,-0.631118 c -1.71754,-0.877814 -4.66598,-2.992865 -6.4679,-4.63972 -1.3251,-1.211062 -4.18216,-4.705416 -4.90861,-6.00351 -0.2328,-0.415978 -0.3535,-0.406239 -1.65172,0.133278 -4.8053,1.996994 -9.90432,1.008375 -13.53738,-2.624684 l -1.62324,-1.623238 -1.50729,0.109027 c -0.98139,0.07099 -2.095,0.398783 -3.19175,0.939507 -4.28822,2.114196 -6.13473,6.399946 -4.32344,10.034735 0.96246,1.931402 3.39956,4.140874 5.85227,5.305662 1.75513,0.833507 2.37463,0.987541 4.35187,1.082075 3.64525,0.174281 5.46828,-0.881069 7.08545,-4.101755 1.02493,-2.041199 2.44135,-2.479251 3.75828,-1.162316 1.02063,1.02063 0.98585,1.787646 -0.18186,4.009793 -1.1696,2.225747 -2.75433,3.729726 -5.08263,4.823622 -1.53264,0.720073 -2.11865,0.843492 -4.41315,0.929448 -3.10897,0.116468 -5.1312,-0.314488 -7.94591,-1.693346 -3.38902,-1.660196 -6.26308,-4.548966 -7.74495,-7.784581 -0.94316,-2.059376 -1.10298,-5.593563 -0.34994,-7.738725 1.54867,-4.411631 5.77332,-8.050281 10.40468,-8.961445 l 1.53508,-0.302009 v -2.06304 c 0,-1.913597 0.0505,-2.102762 0.69714,-2.611409 0.95769,-0.75332 2.23194,-0.71195 2.99205,0.09714 0.47703,0.507786 0.63009,1.029961 0.71736,2.447396 0.24112,3.916365 2.79315,6.763141 6.61007,7.373491 1.30774,0.209116 3.84932,-0.284375 4.59552,-0.892296 l 0.54742,-0.445978 -0.55234,-1.5875 c -0.6746,-1.938902 -1.2134,-4.446376 -1.45588,-6.775441 l -0.18202,-1.748358 -1.49456,-0.616389 c -2.0055,-0.827114 -4.03276,-2.904219 -4.81803,-4.936488 -0.45739,-1.183726 -0.62085,-2.268222 -0.71628,-4.752198 l -0.12365,-3.218459 -4.13601,-0.09167 c -4.53039,-0.100412 -5.13278,-0.267118 -6.87116,-1.901553 -1.42469,-1.339494 -1.95198,-2.647979 -2.09782,-5.20579 -0.22548,-3.95456 1.04671,-6.594147 3.8415,-7.970495 l 1.25606,-0.618573 38.43468,-0.07048 38.43468,-0.07048 -0.12233,-0.590975 c -0.0673,-0.325037 -0.18809,-1.24582 -0.26847,-2.046184 -0.60457,-6.020219 -1.56067,-13.02562 -1.90832,-13.982326 -1.33074,-3.662069 -8.1064,-7.1916715 -16.8398,-8.7722484 -11.18681,-2.0245957 -25.24751,-0.9731442 -33.68317,2.5188105 -5.61095,2.32266 -8.03052,4.8832599 -8.43328,8.9248269 l -0.17798,1.785937 H 154.57 c 26.59317,0 26.23108,-0.01631 26.69877,1.202479 0.3598,0.937611 0.16034,2.148636 -0.44801,2.72015 l -0.61237,0.575287 h -25.58793 -25.58793 l -0.23047,0.606187 c -0.30518,0.802696 -0.82512,1.20828 -1.79851,1.402959 -0.64655,0.12931 -0.9728,0.0067 -1.69177,-0.635674 l -0.89074,-0.795879 0.57532,-5.090158 c 0.51485,-4.555233 0.66396,-5.270239 1.41891,-6.803743 2.06262,-4.1897812 7.38792,-7.6751903 14.80119,-9.6873767 5.97304,-1.62126262 13.7355,-2.43951072 20.76979,-2.18936112 17.52732,0.6232968 29.41261,5.91848102 31.3411,13.96321782 0.15295,0.63802 0.63516,4.315193 1.07158,8.171495 0.43642,3.856302 0.85604,7.386904 0.93249,7.845782 l 0.139,0.834323 4.68917,0.09172 c 4.27587,0.08364 4.79987,0.146238 5.94522,0.710291 2.55192,1.256741 3.90331,3.744876 3.90331,7.186635 0,3.404732 -1.31114,5.886995 -3.81841,7.229056 -1.0238,0.54801 -1.4544,0.580101 -8.81544,0.656995 l -7.73906,0.08084 v 4.360237 c 0,4.250307 0.0131,4.353231 0.51918,4.082377 0.28556,-0.152823 0.8859,-0.810849 1.33409,-1.46228 0.44877,-0.652262 1.10498,-1.257225 1.46052,-1.34646 0.9846,-0.247118 3.10619,0.366096 4.81091,1.390521 3.78508,2.274576 5.28092,4.964639 3.66128,6.584278 -1.13353,1.133529 -2.03264,0.896884 -3.93753,-1.036349 -2.16553,-2.197742 -2.53457,-2.305105 -3.90154,-1.135031 -0.59148,0.506287 -1.6947,1.193825 -2.4516,1.527864 l -1.37617,0.607343 -0.43664,3.054781 c -0.24016,1.68013 -0.74839,3.997056 -1.12941,5.148723 -0.78732,2.379714 -0.82668,2.297741 1.42495,2.967152 2.68399,0.797951 6.05455,-0.212366 7.76339,-2.327061 2.18566,-2.704749 1.78105,-2.460352 4.24045,-2.561354 2.80807,-0.115322 4.7191,0.275744 7.05283,1.443258 4.78558,2.394131 7.59351,6.826278 7.35742,11.61323 -0.12934,2.622391 -0.82476,4.467887 -2.51208,6.666573 -5.61546,7.317305 -16.55356,8.996893 -21.80256,3.347867 -1.11492,-1.1999 -1.81085,-2.535745 -1.81192,-3.478029 -0.001,-1.14341 1,-2.170786 2.11568,-2.170786 0.85286,0 1.352,0.405927 2.74528,2.232606 2.21538,2.904506 7.63752,3.045949 11.90908,0.310662 1.96435,-1.257869 3.99891,-3.596362 4.53612,-5.213753 0.53363,-1.606629 0.43274,-3.627814 -0.2527,-5.062064 -1.29495,-2.709627 -4.44287,-4.878865 -7.47963,-5.154229 l -1.56237,-0.14167 -1.62694,1.626943 c -3.63699,3.636982 -8.73365,4.626269 -13.54108,2.628389 -1.29823,-0.539517 -1.41893,-0.549256 -1.65172,-0.133278 -0.13813,0.246825 -0.95807,1.386922 -1.82207,2.53355 -4.37417,5.804951 -11.30562,9.958568 -18.75112,11.236456 -3.58061,0.614549 -4.66352,0.570606 -5.4555,-0.221377 -0.6391,-0.639102 -0.83828,-1.725578 -0.48508,-2.646006 0.26302,-0.685424 1.41246,-1.119206 3.49184,-1.317772 3.03721,-0.290034 5.75736,-1.104866 8.91151,-2.66949 5.15244,-2.555875 8.76874,-6.168171 11.38303,-11.370425 2.41241,-4.800521 2.57338,-5.724704 2.70746,-15.54427 l 0.1147,-8.40052 h -19.75384 c -20.32288,0 -20.44147,-0.0058 -21.23199,-1.035405 -0.48652,-0.633679 -0.4022,-2.003086 0.16659,-2.705596 l 0.50573,-0.624624 29.64948,-0.132292 29.64948,-0.132291 0.6026,-0.602662 c 0.52593,-0.52599 0.6026,-0.87008 0.6026,-2.70463 0,-1.834635 -0.0767,-2.178615 -0.60267,-2.704629 l -0.60266,-0.602662 h -44.69988 -44.69988 l -0.59764,0.597638 c -0.4892,0.489208 -0.61572,0.955762 -0.69731,2.571532 -0.0961,1.903601 -0.0711,2.002453 0.70223,2.7758 l 0.8019,0.801904 h 8.72229 c 8.19081,0 8.76035,0.03079 9.34692,0.505343 l 0.62462,0.505343 0.1516,10.144136 c 0.13954,9.33675 0.19766,10.312604 0.73029,12.260802 1.98511,7.260932 6.87342,13.182668 13.73048,16.633221 2.51127,1.263697 2.84067,1.780385 2.62366,4.11537 -0.40952,4.406288 -2.0971,7.841188 -5.49971,11.194158 -1.3161,1.296897 -2.34361,2.529863 -2.34361,2.81222 0,0.74589 3.39219,3.81044 5.74969,5.19434 5.16479,3.03184 11.4624,3.69061 17.32188,1.81199 1.20787,-0.38726 2.48669,-0.68433 2.84182,-0.66015 1.02669,0.0699 1.86785,1.04183 1.86785,2.15822 0,1.66183 -1.15459,2.35424 -5.82083,3.49071 -3.32551,0.80993 -8.24341,0.75223 -11.67312,-0.13697 -3.06314,-0.79416 -6.00531,-2.11515 -8.32927,-3.73972 -0.94533,-0.66084 -1.77262,-1.20152 -1.83841,-1.20152 -0.0658,0 -0.117,2.05383 -0.1138,4.56406 0.008,6.28587 0.39443,7.07357 4.17357,8.50737 2.18936,0.83063 4.37907,1.38925 6.80082,1.73495 2.74689,0.39212 8.65546,0.32794 11.44389,-0.12429 3.22967,-0.52381 7.13377,-1.79327 8.45221,-2.74835 1.85543,-1.34406 1.93203,-1.78961 1.93203,-11.2381 v -8.289478 l -1.47474,-1.164016 c -2.59143,-2.045427 -2.9631,-3.906407 -0.99005,-4.957257 0.99092,-0.527771 1.55,-0.350682 3.29096,1.042418 2.3278,1.862689 2.84394,2.094638 10.66399,4.792349 3.79411,1.308864 7.55531,2.726264 8.35824,3.149764 4.4065,2.32422 7.53934,6.31161 8.91375,11.34516 0.40758,1.4927 0.4699,2.93686 0.47194,10.93657 l 0.002,9.21677 -0.77387,0.66607 c -0.61972,0.53338 -0.95866,0.63608 -1.70147,0.51553 -1.79762,-0.29171 -1.74139,0.0108 -1.91413,-10.29743 -0.17695,-10.5592 -0.26598,-11.07432 -2.4741,-14.31524 -0.99031,-1.4535 -4.01121,-4.1306 -4.66106,-4.1306 -0.15281,0 -0.24932,5.26895 -0.24932,13.61129 v 13.61128 l -0.62717,0.72913 c -0.87885,1.02173 -2.36473,1.02173 -3.24358,0 l -0.62717,-0.72913 v -14.5021 -14.50211 l -4.16719,-1.45362 -4.16718,-1.45363 -0.1323,7.96684 c -0.1316,7.92538 -0.13592,7.97458 -0.82951,9.4538 -1.37151,2.92502 -3.19887,4.32883 -7.57229,5.81719 -4.91312,1.67202 -12.71769,2.32904 -18.4534,1.55347 -5.45087,-0.73704 -10.55951,-2.7183 -12.5144,-4.85338 -2.24043,-2.44693 -2.27891,-2.63929 -2.38012,-11.89723 -0.0822,-7.52111 -0.12396,-8.14373 -0.53484,-7.98012 -0.2451,0.0976 -3.16822,1.11589 -6.49583,2.26285 -3.343,1.15228 -6.62685,2.45545 -7.33894,2.9124 -2.8501,1.8289 -5.16954,5.27074 -5.77099,8.56364 -0.16635,0.91076 -0.28675,5.04276 -0.28675,9.84098 0,8.20356 -0.005,8.27646 -0.59532,8.93727 -0.68391,0.76542 -1.66059,1.03492 -2.49811,0.68934 z M 129.31022,50.697495 V 46.33187 h -1.32292 -1.32292 l 0.001,2.447396 c 8.1e-4,1.346067 0.12448,2.890283 0.27481,3.431591 0.24347,0.876638 1.76893,2.852262 2.20235,2.852262 0.092,0 0.1672,-1.964531 0.1672,-4.365624 z m -2.2868,84.013125 c -1.37508,-0.56873 -1.41737,-0.84737 -1.41737,-9.33924 v -7.89065 l 0.64943,-0.64943 c 0.44838,-0.44838 0.94356,-0.64943 1.59953,-0.64943 0.65596,0 1.15114,0.20105 1.59952,0.64943 l 0.64944,0.64943 v 7.93477 c 0,7.85486 -0.006,7.94148 -0.59532,8.60102 -0.68059,0.7617 -1.66025,1.03531 -2.48523,0.6941 z m 30.60919,-60.081816 c -2.98045,-0.61195 -5.83282,-2.778976 -5.83282,-4.43136 0,-0.786199 0.97389,-1.844566 1.88058,-2.043709 0.67173,-0.147537 1.06366,-0.0085 2.21934,0.787474 2.64666,1.822829 4.39968,1.847628 7.01786,0.09928 1.80506,-1.205372 2.76542,-1.213361 3.69566,-0.03075 1.0038,1.276117 0.53486,2.558707 -1.42633,3.901162 -2.30819,1.579975 -5.11609,2.218515 -7.55429,1.717903 z m -6.00294,-16.911926 c -1.14986,-0.47558 -1.41738,-1.264484 -1.41738,-4.179865 0,-2.547099 0.0438,-2.775073 0.64944,-3.380711 1.21471,-1.214713 3.31723,-0.613405 3.73962,1.069505 0.0892,0.355278 0.12037,1.718023 0.0694,3.028323 -0.0761,1.955171 -0.18767,2.475527 -0.62195,2.901912 -0.64997,0.638158 -1.66383,0.873208 -2.41908,0.560836 z m 13.93367,-0.07679 c -1.01889,-0.525458 -1.31996,-1.43112 -1.32423,-3.983422 -0.005,-3.1216 0.55729,-4.124336 2.32323,-4.141379 0.58087,-0.0056 1.08871,0.208372 1.52135,0.641018 0.60698,0.606971 0.64944,0.830888 0.64944,3.424829 0,2.504393 -0.0581,2.840453 -0.59532,3.441648 -0.73873,0.826764 -1.7146,1.060757 -2.57447,0.617306 z"
       id="path4" /><path
       id="path9"
       style="fill:#ffd9ad;fill-opacity:1;stroke-width:0.391999"
       d="m 151.03781,85.58444 -0.33796,1.871204 c -0.18594,1.029112 -0.34175,1.982462 -0.34675,2.118733 -0.0103,0.294975 1.13127,0.616278 3.82819,1.077971 3.91849,0.670815 8.98559,0.457786 13.27567,-0.558106 1.95379,-0.462656 2.54459,-0.94069 2.85306,-2.308386 l 0.20722,-0.917773 -1.79214,0.609265 c -2.04198,0.69452 -6.14155,1.452624 -7.85585,1.452624 -1.25824,0 -2.45221,-0.862395 -2.45721,-1.774052 -0.002,-0.402773 -0.27376,-0.485963 -1.78594,-0.545703 -0.98094,-0.03875 -2.63983,-0.285012 -3.68608,-0.54777 z" /></g></svg>
